HIERARCHY
ROOT Pelvis
{
	OFFSET 0.000000 0.941512 0.000000
	CHANNELS 6 Xposition Yposition Zposition Zrotation Yrotation Xrotation 
	JOINT Pelvis_L_Hip
	{
		OFFSET 0.000000 0.000000 0.000000
		CHANNELS 3 Zrotation Yrotation Xrotation
		JOINT L_Hip
		{
			OFFSET 0.062321 -0.080322 -0.016990
			CHANNELS 3 Zrotation Yrotation Xrotation
			JOINT L_Knee
			{
				OFFSET 0.093051 -0.381305 -0.029784
				CHANNELS 3 Zrotation Yrotation Xrotation
				JOINT L_Ankle
				{
					OFFSET -0.010371 -0.431000 -0.033614
					CHANNELS 3 Zrotation Yrotation Xrotation
					End Site #name: L_Foot
					{
						OFFSET 0.069299 -0.038670 0.119418
					}
				}
			}
		}
	}
	JOINT Pelvis_R_Hip
	{
		OFFSET 0.000000 0.000000 0.000000
		CHANNELS 3 Zrotation Yrotation Xrotation
		JOINT R_Hip
		{
			OFFSET -0.055334 -0.094904 -0.002373
			CHANNELS 3 Zrotation Yrotation Xrotation
			JOINT R_Knee
			{
				OFFSET -0.064207 -0.384370 -0.019592
				CHANNELS 3 Zrotation Yrotation Xrotation
				JOINT R_Ankle
				{
					OFFSET 0.025418 -0.419734 -0.065953
					CHANNELS 3 Zrotation Yrotation Xrotation
					End Site #name: R_Foot
					{
						OFFSET -0.057233 -0.039888 0.132134
					}
				}
			}
		}
	}
	JOINT Pelvis_Spine1
	{
		OFFSET 0.000000 0.000000 0.000000
		CHANNELS 3 Zrotation Yrotation Xrotation
		JOINT Spine1
		{
			OFFSET -0.005562 0.124093 -0.043360
			CHANNELS 3 Zrotation Yrotation Xrotation
			JOINT Spine2
			{
				OFFSET 0.012244 0.139499 0.029894
				CHANNELS 3 Zrotation Yrotation Xrotation
				JOINT Spine3
				{
					OFFSET -0.002556 0.056561 0.009225
					CHANNELS 3 Zrotation Yrotation Xrotation
					JOINT Spine3_Neck
					{
						OFFSET 0.000000 0.000000 0.000000
						CHANNELS 3 Zrotation Yrotation Xrotation
						JOINT Neck
						{
							OFFSET -0.005205 0.217920 -0.024551
							CHANNELS 3 Zrotation Yrotation Xrotation
							End Site #name: Head
							{
								OFFSET 0.002365 0.091850 0.046637
							}
						}
					}
					JOINT Spine3_L_Collar
					{
						OFFSET 0.000000 0.000000 0.000000
						CHANNELS 3 Zrotation Yrotation Xrotation
						JOINT L_Collar
						{
							OFFSET 0.072225 0.116603 -0.009480
							CHANNELS 3 Zrotation Yrotation Xrotation
							JOINT L_Shoulder
							{
								OFFSET 0.115937 -0.058643 -0.021018
								CHANNELS 3 Zrotation Yrotation Xrotation
								JOINT L_Elbow
								{
									OFFSET 0.021994 -0.254722 -0.024492
									CHANNELS 3 Zrotation Yrotation Xrotation
									End Site #name: L_Wrist
									{
										OFFSET 0.048810 -0.240214 0.103329
									}
								}
							}
						}
					}
					JOINT Spine3_R_Collar
					{
						OFFSET 0.000000 0.000000 0.000000
						CHANNELS 3 Zrotation Yrotation Xrotation
						JOINT R_Collar
						{
							OFFSET -0.073372 0.120704 -0.024611
							CHANNELS 3 Zrotation Yrotation Xrotation
							JOINT R_Shoulder
							{
								OFFSET -0.108089 -0.054969 -0.020504
								CHANNELS 3 Zrotation Yrotation Xrotation
								JOINT R_Elbow
								{
									OFFSET -0.033684 -0.260739 0.009889
									CHANNELS 3 Zrotation Yrotation Xrotation
									End Site #name: R_Wrist
									{
										OFFSET -0.067980 -0.232763 0.118463
									}
								}
							}
						}
					}
				}
			}
		}
	}
}
MOTION
Frames: 14
Frame Time: 0.041667
0.000000 0.949697 0.000000 -3.373105 -4.325648 3.728669 0.000000 0.000000 0.000000 -1.414417 -1.073968 -4.641738 4.740204 -0.790446 6.308959 2.854736 3.525773 -3.280566 0.000000 0.000000 0.000000 4.718096 1.291501 -7.469270 -6.623321 1.792296 6.061761 5.375744 12.336639 3.247374 0.000000 0.000000 0.000000 7.060320 -1.405455 -1.112093 -3.115078 0.068122 -6.300695 0.137329 3.392461 8.094622 0.000000 0.000000 0.000000 -0.052626 0.129251 -4.277196 0.000000 0.000000 0.000000 10.826843 0.519842 2.421679 -16.167148 -0.042426 -7.963518 6.021530 3.129313 4.122519 0.000000 0.000000 0.000000 -20.267680 8.428668 -2.084488 22.110143 -2.474810 9.210459 -3.989238 0.635219 -10.335488 
-0.000454 0.949444 0.000692 -3.366549 -4.293267 3.965818 0.000000 0.000000 0.000000 -1.441485 -1.118883 -4.826028 4.778226 -0.796558 6.323693 2.824737 3.516138 -3.228094 0.000000 0.000000 0.000000 4.739438 1.316280 -7.592174 -6.699958 1.809358 6.067314 5.333610 12.319526 3.181649 0.000000 0.000000 0.000000 7.053570 -1.325814 -1.656615 -3.129196 0.090029 -5.994097 0.066401 3.319408 8.175721 0.000000 0.000000 0.000000 -0.051760 0.131700 -4.445568 0.000000 0.000000 0.000000 11.225462 0.369149 2.406356 -16.516370 -0.031279 -7.992925 6.136535 3.160193 4.026338 0.000000 0.000000 0.000000 -20.519361 8.738022 -2.287291 22.386762 -2.518828 9.283250 -4.142811 0.628313 -10.665799 
-0.000520 0.949409 0.001393 -3.384994 -4.269803 3.959427 0.000000 0.000000 0.000000 -1.428801 -1.112393 -4.798862 4.801580 -0.801888 6.357968 2.825314 3.499022 -3.238221 0.000000 0.000000 0.000000 4.781044 1.305704 -7.540217 -6.728981 1.816468 6.074473 5.339581 12.327697 3.188854 0.000000 0.000000 0.000000 7.054020 -1.333387 -1.605728 -3.144002 0.089843 -6.019587 0.049464 3.336769 8.143059 0.000000 0.000000 0.000000 -0.077744 0.144362 -4.433752 0.000000 0.000000 0.000000 11.247023 0.413490 2.440993 -16.485166 -0.039118 -8.014140 6.109740 3.143896 3.980145 0.000000 0.000000 0.000000 -20.592712 8.725159 -2.273615 22.515080 -2.493150 9.184869 -4.089241 0.633890 -10.565209 
-0.000751 0.949116 0.002670 -3.437737 -4.263027 3.984363 0.000000 0.000000 0.000000 -1.372480 -1.096815 -4.729293 4.800219 -0.799800 6.324489 2.826711 3.493591 -3.243971 0.000000 0.000000 0.000000 4.835462 1.274324 -7.392130 -6.716101 1.793468 5.918791 5.334075 12.319190 3.183648 0.000000 0.000000 0.000000 7.110081 -1.312442 -1.824928 -3.124166 0.097046 -5.879214 0.025606 3.346291 8.197464 0.000000 0.000000 0.000000 -0.178062 0.192611 -4.448842 0.000000 0.000000 0.000000 11.255436 0.289829 2.366319 -16.501298 -0.028315 -7.976541 6.167395 3.173617 4.037959 0.000000 0.000000 0.000000 -20.594326 8.884820 -2.399853 22.486252 -2.484028 9.158246 -4.073155 0.653947 -10.598836 
-0.000889 0.948826 0.003415 -3.434165 -4.229487 4.003470 0.000000 0.000000 0.000000 -1.367744 -1.089858 -4.702174 4.790128 -0.798867 6.335547 2.835710 3.464387 -3.277317 0.000000 0.000000 0.000000 4.837603 1.263936 -7.344046 -6.706533 1.793355 5.934315 5.250967 12.307249 3.041448 0.000000 0.000000 0.000000 7.080326 -1.298982 -1.875672 -3.140374 0.099347 -5.869876 0.025559 3.333768 8.191530 0.000000 0.000000 0.000000 -0.151517 0.183531 -4.602612 0.000000 0.000000 0.000000 11.273336 0.254430 2.348664 -16.496142 -0.035211 -8.003724 6.184770 3.177584 4.017893 0.000000 0.000000 0.000000 -20.487912 8.840912 -2.380123 22.385214 -2.458066 9.099565 -4.075720 0.723494 -10.866441 
-0.000961 0.948782 0.004117 -3.433867 -4.208848 4.001031 0.000000 0.000000 0.000000 -1.372420 -1.079936 -4.663486 4.803691 -0.801795 6.350230 2.847805 3.437732 -3.315609 0.000000 0.000000 0.000000 4.830338 1.259557 -7.323311 -6.686825 1.796776 5.993001 5.230174 12.312279 3.001981 0.000000 0.000000 0.000000 7.042764 -1.296631 -1.839291 -3.128060 0.093701 -5.932745 0.026779 3.354767 8.153389 0.000000 0.000000 0.000000 -0.115553 0.165656 -4.541217 0.000000 0.000000 0.000000 11.261863 0.312888 2.385298 -16.505258 -0.042265 -8.027428 6.150710 3.165776 4.027254 0.000000 0.000000 0.000000 -20.536002 8.853842 -2.389551 22.455156 -2.443267 9.045112 -3.988043 0.745779 -10.738960 
-0.001070 0.948593 0.004475 -3.443563 -4.164173 3.980328 0.000000 0.000000 0.000000 -1.338401 -1.103116 -4.751285 4.765251 -0.811687 6.601292 2.905235 3.429272 -3.429391 0.000000 0.000000 0.000000 4.831444 1.253553 -7.294054 -6.648338 1.797031 6.060042 5.156390 12.263387 2.896782 0.000000 0.000000 0.000000 7.024898 -1.289320 -1.861773 -3.126436 0.100426 -5.827529 0.045874 3.349223 8.202704 0.000000 0.000000 0.000000 -0.123444 0.174297 -4.740459 0.000000 0.000000 0.000000 11.335518 0.192046 2.326871 -16.610409 -0.061487 -8.132181 6.138569 3.163798 4.047153 0.000000 0.000000 0.000000 -20.559651 8.897759 -2.424455 22.426903 -2.393507 8.896188 -4.018368 0.747957 -10.821126 
-0.001070 0.948593 0.004940 -3.438523 -4.156305 3.949168 0.000000 0.000000 0.000000 -1.335506 -1.080626 -4.660948 4.749062 -0.807884 6.572165 2.942106 3.479739 -3.470262 0.000000 0.000000 0.000000 4.829796 1.240359 -7.231531 -6.649841 1.799200 6.074472 5.122685 12.294671 2.819269 0.000000 0.000000 0.000000 7.004205 -1.300042 -1.758981 -3.149575 0.097650 -5.906913 0.045631 3.339823 8.230283 0.000000 0.000000 0.000000 -0.150500 0.188090 -4.785706 0.000000 0.000000 0.000000 11.288820 0.120082 2.272477 -16.614519 -0.046884 -8.071633 6.210951 3.194224 4.070238 0.000000 0.000000 0.000000 -20.452380 8.823857 -2.378891 22.360554 -2.349761 8.775002 -4.028841 0.734289 -10.792212 
-0.001012 0.948526 0.005396 -3.454406 -4.198499 4.005134 0.000000 0.000000 0.000000 -1.323387 -1.083355 -4.670369 4.754234 -0.807593 6.557549 2.969359 3.483677 -3.523252 0.000000 0.000000 0.000000 4.826220 1.251249 -7.284644 -6.642475 1.801788 6.105665 5.143200 12.358113 2.820842 0.000000 0.000000 0.000000 7.021775 -1.314732 -1.689553 -3.157245 0.091441 -6.013415 0.056376 3.376903 8.251691 0.000000 0.000000 0.000000 -0.268148 0.242913 -4.746437 0.000000 0.000000 0.000000 11.227540 0.265393 2.351178 -16.578552 -0.057767 -8.114778 6.120369 3.144184 3.952216 0.000000 0.000000 0.000000 -20.451251 8.822760 -2.378214 22.348134 -2.353855 8.786711 -4.014936 0.726702 -10.732940 
-0.000933 0.948551 0.005666 -3.470843 -4.190710 4.094008 0.000000 0.000000 0.000000 -1.305241 -1.124610 -4.832314 4.734755 -0.815397 6.728182 2.976303 3.494653 -3.530367 0.000000 0.000000 0.000000 4.839740 1.273658 -7.391382 -6.645925 1.808661 6.153105 5.107076 12.335035 2.768191 0.000000 0.000000 0.000000 7.007540 -1.330491 -1.571532 -3.156114 0.082121 -6.150933 0.077441 3.395949 8.204935 0.000000 0.000000 0.000000 -0.499714 0.351799 -4.696303 0.000000 0.000000 0.000000 11.192331 0.297584 2.365379 -16.581290 -0.059224 -8.114757 6.109202 3.150201 4.028462 0.000000 0.000000 0.000000 -20.423299 8.925568 -2.464385 22.295119 -2.415119 8.983813 -4.026103 0.727318 -10.766097 
-0.000891 0.948510 0.005851 -3.464935 -4.199018 4.097376 0.000000 0.000000 0.000000 -1.326461 -1.117627 -4.807637 4.745929 -0.814105 6.681621 2.978912 3.510377 -3.526546 0.000000 0.000000 0.000000 4.844791 1.287454 -7.455804 -6.670097 1.832135 6.294142 5.084577 12.344793 2.722156 0.000000 0.000000 0.000000 6.956350 -1.346348 -1.393695 -3.165479 0.083886 -6.140304 0.147377 3.422313 8.251820 0.000000 0.000000 0.000000 -0.828793 0.509113 -4.776675 0.000000 0.000000 0.000000 11.195380 0.257423 2.342112 -16.622277 -0.078788 -8.210207 6.151397 3.169020 4.049055 0.000000 0.000000 0.000000 -20.354388 8.904312 -2.457800 22.122763 -2.415049 9.009742 -4.024219 0.761779 -10.886119 
-0.000778 0.948739 0.005935 -3.451751 -4.190817 4.099185 0.000000 0.000000 0.000000 -1.355801 -1.125252 -4.842346 4.757473 -0.819123 6.737846 2.989166 3.522433 -3.538871 0.000000 0.000000 0.000000 4.825204 1.290632 -7.471571 -6.675076 1.836356 6.318934 5.074376 12.340915 2.706091 0.000000 0.000000 0.000000 6.978334 -1.382030 -1.184512 -3.201564 0.094180 -6.045513 0.125773 3.428306 8.267650 0.000000 0.000000 0.000000 -1.017082 0.599295 -4.852101 0.000000 0.000000 0.000000 11.168153 0.221451 2.315039 -16.526420 -0.088238 -8.235418 6.135185 3.145738 3.920798 0.000000 0.000000 0.000000 -20.377469 8.958714 -2.499098 22.175943 -2.378717 8.888439 -4.092769 0.670091 -10.708315 
-0.000543 0.948948 0.005958 -3.466982 -4.173297 4.239108 0.000000 0.000000 0.000000 -1.370562 -1.176470 -5.049493 4.762644 -0.826483 6.847230 3.005848 3.567152 -3.544692 0.000000 0.000000 0.000000 4.845879 1.367514 -7.832483 -6.706062 1.892719 6.699692 4.975431 12.373113 2.510698 0.000000 0.000000 0.000000 6.902125 -1.410912 -0.891872 -3.168013 0.086667 -6.101934 0.222832 3.454659 8.261896 0.000000 0.000000 0.000000 -1.263547 0.716184 -4.870014 0.000000 0.000000 0.000000 11.153132 0.173237 2.283796 -16.486778 -0.081926 -8.198105 6.140272 3.133914 3.817568 0.000000 0.000000 0.000000 -20.343260 8.938519 -2.491441 22.017626 -2.393363 8.960731 -4.067418 0.703709 -10.775661 
-0.000064 0.949316 0.005153 -3.473888 -4.094638 4.668206 0.000000 0.000000 0.000000 -1.350114 -1.425555 -6.041920 4.657993 -0.866179 7.746415 3.132078 3.698865 -3.710130 0.000000 0.000000 0.000000 4.900514 1.527813 -8.585669 -6.832791 1.974584 7.110311 4.902980 12.281459 2.430766 0.000000 0.000000 0.000000 6.870872 -1.451033 -0.610590 -3.144909 0.067441 -6.349481 0.234177 3.453151 8.357389 0.000000 0.000000 0.000000 -1.355329 0.763206 -5.186378 0.000000 0.000000 0.000000 11.098474 0.223281 2.306833 -16.242222 -0.124458 -8.348447 5.992969 3.058631 3.679632 0.000000 0.000000 0.000000 -20.321284 8.917030 -2.481332 21.897363 -2.338180 8.805380 -3.961190 0.734495 -10.645534 
